# xmcd
# 
# Track frame offsets:
#     150
#     95212
#     169552
#     218377
# 
# Disc length: 4234
# 
# Revision: 6
# Processed by: cddbd v1.5.2PL0 Copyright (c) Steve Scherf et al.
# Submitted via: fre:ac v1.0.31
# 
DISCID=2b108804
DTITLE=Stanislaw Skrowaczewski - Bruckner - Symphony No.4
DYEAR=1998
DGENRE=Classical
TTITLE0=Symphony No.4 in E flat major, WAB 104 "Romantic" - I. Ruhig bewegt. Allegro molto moderato
TTITLE1=Symphony No.4 in E flat major, WAB 104 "Romantic" - II. Andante
TTITLE2=Symphony No.4 in E flat major, WAB 104 "Romantic" - III. Scherzo
TTITLE3=Symphony No.4 in E flat major, WAB 104 "Romantic" - IV. Finale
EXTD=YEAR: 2001
EXTT0=
EXTT1=
EXTT2=
EXTT3=
PLAYORDER=
